<mxfile host="app.diagrams.net" agent="Mozilla/5.0 (Windows NT 10.0; Win64; x64) AppleWebKit/537.36 (KHTML, like Gecko) Chrome/137.0.0.0 Safari/537.36" version="27.1.4">
  <diagram id="C5RBs43oDa-KdzZeNtuy" name="Page-1">
    <mxGraphModel dx="1296" dy="1768" grid="1" gridSize="10" guides="1" tooltips="1" connect="1" arrows="1" fold="1" page="1" pageScale="1" pageWidth="827" pageHeight="1169" math="0" shadow="0">
      <root>
        <mxCell id="WIyWlLk6GJQsqaUBKTNV-0" />
        <mxCell id="WIyWlLk6GJQsqaUBKTNV-1" parent="WIyWlLk6GJQsqaUBKTNV-0" />
        <mxCell id="zkfFHV4jXpPFQw0GAbJ--13" value="User" style="swimlane;fontStyle=2;align=center;verticalAlign=top;childLayout=stackLayout;horizontal=1;startSize=26;horizontalStack=0;resizeParent=1;resizeLast=0;collapsible=1;marginBottom=0;rounded=0;shadow=0;strokeWidth=1;" parent="WIyWlLk6GJQsqaUBKTNV-1" vertex="1">
          <mxGeometry x="300" y="280" width="220" height="476" as="geometry">
            <mxRectangle x="340" y="380" width="170" height="26" as="alternateBounds" />
          </mxGeometry>
        </mxCell>
        <mxCell id="C541wuzrbxIjHpkN4bZi-99" value="- Id : Int" style="text;align=left;verticalAlign=top;spacingLeft=4;spacingRight=4;overflow=hidden;rotatable=0;points=[[0,0.5],[1,0.5]];portConstraint=eastwest;" vertex="1" parent="zkfFHV4jXpPFQw0GAbJ--13">
          <mxGeometry y="26" width="220" height="26" as="geometry" />
        </mxCell>
        <mxCell id="C541wuzrbxIjHpkN4bZi-95" value="- IsLocked : Bool" style="text;align=left;verticalAlign=top;spacingLeft=4;spacingRight=4;overflow=hidden;rotatable=0;points=[[0,0.5],[1,0.5]];portConstraint=eastwest;" vertex="1" parent="zkfFHV4jXpPFQw0GAbJ--13">
          <mxGeometry y="52" width="220" height="26" as="geometry" />
        </mxCell>
        <mxCell id="C541wuzrbxIjHpkN4bZi-96" value="- Tags : List&lt;Tag&gt;" style="text;align=left;verticalAlign=top;spacingLeft=4;spacingRight=4;overflow=hidden;rotatable=0;points=[[0,0.5],[1,0.5]];portConstraint=eastwest;" vertex="1" parent="zkfFHV4jXpPFQw0GAbJ--13">
          <mxGeometry y="78" width="220" height="26" as="geometry" />
        </mxCell>
        <mxCell id="C541wuzrbxIjHpkN4bZi-112" value="- ImgUrl: String" style="text;align=left;verticalAlign=top;spacingLeft=4;spacingRight=4;overflow=hidden;rotatable=0;points=[[0,0.5],[1,0.5]];portConstraint=eastwest;" vertex="1" parent="zkfFHV4jXpPFQw0GAbJ--13">
          <mxGeometry y="104" width="220" height="26" as="geometry" />
        </mxCell>
        <mxCell id="C541wuzrbxIjHpkN4bZi-101" value="- FirstName : String" style="text;align=left;verticalAlign=top;spacingLeft=4;spacingRight=4;overflow=hidden;rotatable=0;points=[[0,0.5],[1,0.5]];portConstraint=eastwest;" vertex="1" parent="zkfFHV4jXpPFQw0GAbJ--13">
          <mxGeometry y="130" width="220" height="26" as="geometry" />
        </mxCell>
        <mxCell id="C541wuzrbxIjHpkN4bZi-66" value="- LastName : String" style="text;align=left;verticalAlign=top;spacingLeft=4;spacingRight=4;overflow=hidden;rotatable=0;points=[[0,0.5],[1,0.5]];portConstraint=eastwest;" vertex="1" parent="zkfFHV4jXpPFQw0GAbJ--13">
          <mxGeometry y="156" width="220" height="26" as="geometry" />
        </mxCell>
        <mxCell id="C541wuzrbxIjHpkN4bZi-98" value="- Birthday : Date" style="text;align=left;verticalAlign=top;spacingLeft=4;spacingRight=4;overflow=hidden;rotatable=0;points=[[0,0.5],[1,0.5]];portConstraint=eastwest;" vertex="1" parent="zkfFHV4jXpPFQw0GAbJ--13">
          <mxGeometry y="182" width="220" height="26" as="geometry" />
        </mxCell>
        <mxCell id="C541wuzrbxIjHpkN4bZi-97" value="- Email : String" style="text;align=left;verticalAlign=top;spacingLeft=4;spacingRight=4;overflow=hidden;rotatable=0;points=[[0,0.5],[1,0.5]];portConstraint=eastwest;" vertex="1" parent="zkfFHV4jXpPFQw0GAbJ--13">
          <mxGeometry y="208" width="220" height="26" as="geometry" />
        </mxCell>
        <mxCell id="C541wuzrbxIjHpkN4bZi-15" value="- Articles : List&lt;Article&gt;" style="text;align=left;verticalAlign=top;spacingLeft=4;spacingRight=4;overflow=hidden;rotatable=0;points=[[0,0.5],[1,0.5]];portConstraint=eastwest;" vertex="1" parent="zkfFHV4jXpPFQw0GAbJ--13">
          <mxGeometry y="234" width="220" height="26" as="geometry" />
        </mxCell>
        <mxCell id="C541wuzrbxIjHpkN4bZi-63" value="- SavedArticles : List&lt;Article&gt;" style="text;align=left;verticalAlign=top;spacingLeft=4;spacingRight=4;overflow=hidden;rotatable=0;points=[[0,0.5],[1,0.5]];portConstraint=eastwest;" vertex="1" parent="zkfFHV4jXpPFQw0GAbJ--13">
          <mxGeometry y="260" width="220" height="26" as="geometry" />
        </mxCell>
        <mxCell id="C541wuzrbxIjHpkN4bZi-65" value="-BlockedUsers : List&lt;User&gt; " style="text;align=left;verticalAlign=top;spacingLeft=4;spacingRight=4;overflow=hidden;rotatable=0;points=[[0,0.5],[1,0.5]];portConstraint=eastwest;" vertex="1" parent="zkfFHV4jXpPFQw0GAbJ--13">
          <mxGeometry y="286" width="220" height="26" as="geometry" />
        </mxCell>
        <mxCell id="C541wuzrbxIjHpkN4bZi-94" value="-IsAdmin: Bool " style="text;align=left;verticalAlign=top;spacingLeft=4;spacingRight=4;overflow=hidden;rotatable=0;points=[[0,0.5],[1,0.5]];portConstraint=eastwest;" vertex="1" parent="zkfFHV4jXpPFQw0GAbJ--13">
          <mxGeometry y="312" width="220" height="26" as="geometry" />
        </mxCell>
        <mxCell id="C541wuzrbxIjHpkN4bZi-100" value="- HashPassword : String" style="text;align=left;verticalAlign=top;spacingLeft=4;spacingRight=4;overflow=hidden;rotatable=0;points=[[0,0.5],[1,0.5]];portConstraint=eastwest;" vertex="1" parent="zkfFHV4jXpPFQw0GAbJ--13">
          <mxGeometry y="338" width="220" height="26" as="geometry" />
        </mxCell>
        <mxCell id="zkfFHV4jXpPFQw0GAbJ--15" value="" style="line;html=1;strokeWidth=1;align=left;verticalAlign=middle;spacingTop=-1;spacingLeft=3;spacingRight=3;rotatable=0;labelPosition=right;points=[];portConstraint=eastwest;" parent="zkfFHV4jXpPFQw0GAbJ--13" vertex="1">
          <mxGeometry y="364" width="220" height="8" as="geometry" />
        </mxCell>
        <mxCell id="C541wuzrbxIjHpkN4bZi-9" value="+ Register()" style="text;align=left;verticalAlign=top;spacingLeft=4;spacingRight=4;overflow=hidden;rotatable=0;points=[[0,0.5],[1,0.5]];portConstraint=eastwest;rounded=0;shadow=0;html=0;" vertex="1" parent="zkfFHV4jXpPFQw0GAbJ--13">
          <mxGeometry y="372" width="220" height="26" as="geometry" />
        </mxCell>
        <mxCell id="C541wuzrbxIjHpkN4bZi-62" value="+ HashPassword()" style="text;align=left;verticalAlign=top;spacingLeft=4;spacingRight=4;overflow=hidden;rotatable=0;points=[[0,0.5],[1,0.5]];portConstraint=eastwest;rounded=0;shadow=0;html=0;" vertex="1" parent="zkfFHV4jXpPFQw0GAbJ--13">
          <mxGeometry y="398" width="220" height="26" as="geometry" />
        </mxCell>
        <mxCell id="C541wuzrbxIjHpkN4bZi-10" value="+ LogIn()" style="text;align=left;verticalAlign=top;spacingLeft=4;spacingRight=4;overflow=hidden;rotatable=0;points=[[0,0.5],[1,0.5]];portConstraint=eastwest;rounded=0;shadow=0;html=0;" vertex="1" parent="zkfFHV4jXpPFQw0GAbJ--13">
          <mxGeometry y="424" width="220" height="26" as="geometry" />
        </mxCell>
        <mxCell id="C541wuzrbxIjHpkN4bZi-11" value="+ LogOut()" style="text;align=left;verticalAlign=top;spacingLeft=4;spacingRight=4;overflow=hidden;rotatable=0;points=[[0,0.5],[1,0.5]];portConstraint=eastwest;rounded=0;shadow=0;html=0;" vertex="1" parent="zkfFHV4jXpPFQw0GAbJ--13">
          <mxGeometry y="450" width="220" height="26" as="geometry" />
        </mxCell>
        <mxCell id="C541wuzrbxIjHpkN4bZi-60" value="" style="edgeStyle=orthogonalEdgeStyle;rounded=0;orthogonalLoop=1;jettySize=auto;html=1;entryX=1.027;entryY=0.619;entryDx=0;entryDy=0;entryPerimeter=0;exitX=-0.035;exitY=0.277;exitDx=0;exitDy=0;exitPerimeter=0;endArrow=diamond;endFill=1;" edge="1" parent="WIyWlLk6GJQsqaUBKTNV-1" source="C541wuzrbxIjHpkN4bZi-29" target="C541wuzrbxIjHpkN4bZi-95">
          <mxGeometry relative="1" as="geometry">
            <mxPoint x="529.5999999999999" y="359.5819999999999" as="targetPoint" />
            <Array as="points">
              <mxPoint x="300" y="74" />
              <mxPoint x="300" y="213" />
              <mxPoint x="570" y="213" />
              <mxPoint x="570" y="348" />
            </Array>
          </mxGeometry>
        </mxCell>
        <mxCell id="zkfFHV4jXpPFQw0GAbJ--17" value="Tag" style="swimlane;fontStyle=2;align=center;verticalAlign=top;childLayout=stackLayout;horizontal=1;startSize=26;horizontalStack=0;resizeParent=1;resizeLast=0;collapsible=1;marginBottom=0;rounded=0;shadow=0;strokeWidth=1;" parent="WIyWlLk6GJQsqaUBKTNV-1" vertex="1">
          <mxGeometry x="380" y="-11" width="170" height="138" as="geometry">
            <mxRectangle x="550" y="140" width="160" height="26" as="alternateBounds" />
          </mxGeometry>
        </mxCell>
        <mxCell id="zkfFHV4jXpPFQw0GAbJ--18" value="- Id : Int" style="text;align=left;verticalAlign=top;spacingLeft=4;spacingRight=4;overflow=hidden;rotatable=0;points=[[0,0.5],[1,0.5]];portConstraint=eastwest;fontStyle=0" parent="zkfFHV4jXpPFQw0GAbJ--17" vertex="1">
          <mxGeometry y="26" width="170" height="26" as="geometry" />
        </mxCell>
        <mxCell id="C541wuzrbxIjHpkN4bZi-28" value="- Name : String" style="text;align=left;verticalAlign=top;spacingLeft=4;spacingRight=4;overflow=hidden;rotatable=0;points=[[0,0.5],[1,0.5]];portConstraint=eastwest;fontStyle=0" vertex="1" parent="zkfFHV4jXpPFQw0GAbJ--17">
          <mxGeometry y="52" width="170" height="26" as="geometry" />
        </mxCell>
        <mxCell id="C541wuzrbxIjHpkN4bZi-29" value="- CreateDate: Date" style="text;align=left;verticalAlign=top;spacingLeft=4;spacingRight=4;overflow=hidden;rotatable=0;points=[[0,0.5],[1,0.5]];portConstraint=eastwest;fontStyle=0" vertex="1" parent="zkfFHV4jXpPFQw0GAbJ--17">
          <mxGeometry y="78" width="170" height="26" as="geometry" />
        </mxCell>
        <mxCell id="zkfFHV4jXpPFQw0GAbJ--23" value="" style="line;html=1;strokeWidth=1;align=left;verticalAlign=middle;spacingTop=-1;spacingLeft=3;spacingRight=3;rotatable=0;labelPosition=right;points=[];portConstraint=eastwest;" parent="zkfFHV4jXpPFQw0GAbJ--17" vertex="1">
          <mxGeometry y="104" width="170" height="8" as="geometry" />
        </mxCell>
        <mxCell id="C541wuzrbxIjHpkN4bZi-17" value="Article" style="swimlane;fontStyle=2;align=center;verticalAlign=top;childLayout=stackLayout;horizontal=1;startSize=26;horizontalStack=0;resizeParent=1;resizeLast=0;collapsible=1;marginBottom=0;rounded=0;shadow=0;strokeWidth=1;" vertex="1" parent="WIyWlLk6GJQsqaUBKTNV-1">
          <mxGeometry x="710" y="120" width="170" height="240" as="geometry">
            <mxRectangle x="550" y="140" width="160" height="26" as="alternateBounds" />
          </mxGeometry>
        </mxCell>
        <mxCell id="C541wuzrbxIjHpkN4bZi-20" value="- Id : Int" style="text;align=left;verticalAlign=top;spacingLeft=4;spacingRight=4;overflow=hidden;rotatable=0;points=[[0,0.5],[1,0.5]];portConstraint=eastwest;fontStyle=0" vertex="1" parent="C541wuzrbxIjHpkN4bZi-17">
          <mxGeometry y="26" width="170" height="26" as="geometry" />
        </mxCell>
        <mxCell id="C541wuzrbxIjHpkN4bZi-26" value="- UserId : Int" style="text;align=left;verticalAlign=top;spacingLeft=4;spacingRight=4;overflow=hidden;rotatable=0;points=[[0,0.5],[1,0.5]];portConstraint=eastwest;fontStyle=0" vertex="1" parent="C541wuzrbxIjHpkN4bZi-17">
          <mxGeometry y="52" width="170" height="26" as="geometry" />
        </mxCell>
        <mxCell id="C541wuzrbxIjHpkN4bZi-18" value="- Title : String" style="text;align=left;verticalAlign=top;spacingLeft=4;spacingRight=4;overflow=hidden;rotatable=0;points=[[0,0.5],[1,0.5]];portConstraint=eastwest;fontStyle=0" vertex="1" parent="C541wuzrbxIjHpkN4bZi-17">
          <mxGeometry y="78" width="170" height="26" as="geometry" />
        </mxCell>
        <mxCell id="C541wuzrbxIjHpkN4bZi-24" value="- PublishDate : Date" style="text;align=left;verticalAlign=top;spacingLeft=4;spacingRight=4;overflow=hidden;rotatable=0;points=[[0,0.5],[1,0.5]];portConstraint=eastwest;fontStyle=0" vertex="1" parent="C541wuzrbxIjHpkN4bZi-17">
          <mxGeometry y="104" width="170" height="26" as="geometry" />
        </mxCell>
        <mxCell id="C541wuzrbxIjHpkN4bZi-25" value="- Comments : List&lt;Comment&gt;" style="text;align=left;verticalAlign=top;spacingLeft=4;spacingRight=4;overflow=hidden;rotatable=0;points=[[0,0.5],[1,0.5]];portConstraint=eastwest;fontStyle=0" vertex="1" parent="C541wuzrbxIjHpkN4bZi-17">
          <mxGeometry y="130" width="170" height="26" as="geometry" />
        </mxCell>
        <mxCell id="C541wuzrbxIjHpkN4bZi-49" value="- Reports : List&lt;Report&gt;" style="text;align=left;verticalAlign=top;spacingLeft=4;spacingRight=4;overflow=hidden;rotatable=0;points=[[0,0.5],[1,0.5]];portConstraint=eastwest;fontStyle=0" vertex="1" parent="C541wuzrbxIjHpkN4bZi-17">
          <mxGeometry y="156" width="170" height="26" as="geometry" />
        </mxCell>
        <mxCell id="C541wuzrbxIjHpkN4bZi-90" value="- Tags : List&lt;Tag&gt;" style="text;align=left;verticalAlign=top;spacingLeft=4;spacingRight=4;overflow=hidden;rotatable=0;points=[[0,0.5],[1,0.5]];portConstraint=eastwest;fontStyle=0" vertex="1" parent="C541wuzrbxIjHpkN4bZi-17">
          <mxGeometry y="182" width="170" height="26" as="geometry" />
        </mxCell>
        <mxCell id="C541wuzrbxIjHpkN4bZi-19" value="" style="line;html=1;strokeWidth=1;align=left;verticalAlign=middle;spacingTop=-1;spacingLeft=3;spacingRight=3;rotatable=0;labelPosition=right;points=[];portConstraint=eastwest;" vertex="1" parent="C541wuzrbxIjHpkN4bZi-17">
          <mxGeometry y="208" width="170" height="8" as="geometry" />
        </mxCell>
        <mxCell id="C541wuzrbxIjHpkN4bZi-21" value="Comment" style="swimlane;fontStyle=2;align=center;verticalAlign=top;childLayout=stackLayout;horizontal=1;startSize=26;horizontalStack=0;resizeParent=1;resizeLast=0;collapsible=1;marginBottom=0;rounded=0;shadow=0;strokeWidth=1;" vertex="1" parent="WIyWlLk6GJQsqaUBKTNV-1">
          <mxGeometry x="980" y="110" width="160" height="244" as="geometry">
            <mxRectangle x="550" y="140" width="160" height="26" as="alternateBounds" />
          </mxGeometry>
        </mxCell>
        <mxCell id="C541wuzrbxIjHpkN4bZi-51" value="- Id: Int" style="text;align=left;verticalAlign=top;spacingLeft=4;spacingRight=4;overflow=hidden;rotatable=0;points=[[0,0.5],[1,0.5]];portConstraint=eastwest;fontStyle=0" vertex="1" parent="C541wuzrbxIjHpkN4bZi-21">
          <mxGeometry y="26" width="160" height="26" as="geometry" />
        </mxCell>
        <mxCell id="C541wuzrbxIjHpkN4bZi-22" value="- ArticleId : Int" style="text;align=left;verticalAlign=top;spacingLeft=4;spacingRight=4;overflow=hidden;rotatable=0;points=[[0,0.5],[1,0.5]];portConstraint=eastwest;fontStyle=0" vertex="1" parent="C541wuzrbxIjHpkN4bZi-21">
          <mxGeometry y="52" width="160" height="26" as="geometry" />
        </mxCell>
        <mxCell id="C541wuzrbxIjHpkN4bZi-52" value="- UserId : Int" style="text;align=left;verticalAlign=top;spacingLeft=4;spacingRight=4;overflow=hidden;rotatable=0;points=[[0,0.5],[1,0.5]];portConstraint=eastwest;fontStyle=0" vertex="1" parent="C541wuzrbxIjHpkN4bZi-21">
          <mxGeometry y="78" width="160" height="26" as="geometry" />
        </mxCell>
        <mxCell id="C541wuzrbxIjHpkN4bZi-50" value="- Content: String" style="text;align=left;verticalAlign=top;spacingLeft=4;spacingRight=4;overflow=hidden;rotatable=0;points=[[0,0.5],[1,0.5]];portConstraint=eastwest;fontStyle=0" vertex="1" parent="C541wuzrbxIjHpkN4bZi-21">
          <mxGeometry y="104" width="160" height="26" as="geometry" />
        </mxCell>
        <mxCell id="C541wuzrbxIjHpkN4bZi-53" value="- CreatedAt : Date" style="text;align=left;verticalAlign=top;spacingLeft=4;spacingRight=4;overflow=hidden;rotatable=0;points=[[0,0.5],[1,0.5]];portConstraint=eastwest;fontStyle=0" vertex="1" parent="C541wuzrbxIjHpkN4bZi-21">
          <mxGeometry y="130" width="160" height="26" as="geometry" />
        </mxCell>
        <mxCell id="C541wuzrbxIjHpkN4bZi-54" value="- UpdatedAt : Date" style="text;align=left;verticalAlign=top;spacingLeft=4;spacingRight=4;overflow=hidden;rotatable=0;points=[[0,0.5],[1,0.5]];portConstraint=eastwest;fontStyle=0" vertex="1" parent="C541wuzrbxIjHpkN4bZi-21">
          <mxGeometry y="156" width="160" height="26" as="geometry" />
        </mxCell>
        <mxCell id="C541wuzrbxIjHpkN4bZi-78" value="- Reports : List&lt;Report&gt;" style="text;align=left;verticalAlign=top;spacingLeft=4;spacingRight=4;overflow=hidden;rotatable=0;points=[[0,0.5],[1,0.5]];portConstraint=eastwest;fontStyle=0" vertex="1" parent="C541wuzrbxIjHpkN4bZi-21">
          <mxGeometry y="182" width="160" height="26" as="geometry" />
        </mxCell>
        <mxCell id="C541wuzrbxIjHpkN4bZi-23" value="" style="line;html=1;strokeWidth=1;align=left;verticalAlign=middle;spacingTop=-1;spacingLeft=3;spacingRight=3;rotatable=0;labelPosition=right;points=[];portConstraint=eastwest;" vertex="1" parent="C541wuzrbxIjHpkN4bZi-21">
          <mxGeometry y="208" width="160" height="8" as="geometry" />
        </mxCell>
        <mxCell id="C541wuzrbxIjHpkN4bZi-31" value="&lt;&lt;Enum&gt;&gt;&#xa;Flag&#xa;" style="swimlane;fontStyle=2;align=center;verticalAlign=top;childLayout=stackLayout;horizontal=1;startSize=40;horizontalStack=0;resizeParent=1;resizeLast=0;collapsible=1;marginBottom=0;rounded=0;shadow=0;strokeWidth=1;" vertex="1" parent="WIyWlLk6GJQsqaUBKTNV-1">
          <mxGeometry x="750" y="513" width="163" height="144" as="geometry">
            <mxRectangle x="550" y="140" width="160" height="26" as="alternateBounds" />
          </mxGeometry>
        </mxCell>
        <mxCell id="C541wuzrbxIjHpkN4bZi-46" value="OFFENSIVE" style="text;align=left;verticalAlign=top;spacingLeft=4;spacingRight=4;overflow=hidden;rotatable=0;points=[[0,0.5],[1,0.5]];portConstraint=eastwest;fontStyle=0" vertex="1" parent="C541wuzrbxIjHpkN4bZi-31">
          <mxGeometry y="40" width="163" height="26" as="geometry" />
        </mxCell>
        <mxCell id="C541wuzrbxIjHpkN4bZi-47" value="FAVORITE" style="text;align=left;verticalAlign=top;spacingLeft=4;spacingRight=4;overflow=hidden;rotatable=0;points=[[0,0.5],[1,0.5]];portConstraint=eastwest;fontStyle=0" vertex="1" parent="C541wuzrbxIjHpkN4bZi-31">
          <mxGeometry y="66" width="163" height="26" as="geometry" />
        </mxCell>
        <mxCell id="C541wuzrbxIjHpkN4bZi-48" value="SPAM" style="text;align=left;verticalAlign=top;spacingLeft=4;spacingRight=4;overflow=hidden;rotatable=0;points=[[0,0.5],[1,0.5]];portConstraint=eastwest;fontStyle=0" vertex="1" parent="C541wuzrbxIjHpkN4bZi-31">
          <mxGeometry y="92" width="163" height="26" as="geometry" />
        </mxCell>
        <mxCell id="C541wuzrbxIjHpkN4bZi-58" value="PINNED" style="text;align=left;verticalAlign=top;spacingLeft=4;spacingRight=4;overflow=hidden;rotatable=0;points=[[0,0.5],[1,0.5]];portConstraint=eastwest;fontStyle=0" vertex="1" parent="C541wuzrbxIjHpkN4bZi-31">
          <mxGeometry y="118" width="163" height="26" as="geometry" />
        </mxCell>
        <mxCell id="C541wuzrbxIjHpkN4bZi-55" value="" style="edgeStyle=orthogonalEdgeStyle;rounded=0;orthogonalLoop=1;jettySize=auto;html=1;startArrow=diamondThin;startFill=0;endArrow=none;" edge="1" parent="WIyWlLk6GJQsqaUBKTNV-1" source="C541wuzrbxIjHpkN4bZi-18" target="C541wuzrbxIjHpkN4bZi-53">
          <mxGeometry relative="1" as="geometry" />
        </mxCell>
        <mxCell id="C541wuzrbxIjHpkN4bZi-56" value="0..*" style="text;html=1;align=center;verticalAlign=middle;resizable=0;points=[];autosize=1;strokeColor=none;fillColor=none;" vertex="1" parent="WIyWlLk6GJQsqaUBKTNV-1">
          <mxGeometry x="940" y="217" width="40" height="30" as="geometry" />
        </mxCell>
        <mxCell id="C541wuzrbxIjHpkN4bZi-61" value="0..*" style="text;html=1;align=center;verticalAlign=middle;resizable=0;points=[];autosize=1;strokeColor=none;fillColor=none;" vertex="1" parent="WIyWlLk6GJQsqaUBKTNV-1">
          <mxGeometry x="330" y="43" width="40" height="30" as="geometry" />
        </mxCell>
        <mxCell id="C541wuzrbxIjHpkN4bZi-68" value="Report" style="swimlane;fontStyle=2;align=center;verticalAlign=top;childLayout=stackLayout;horizontal=1;startSize=26;horizontalStack=0;resizeParent=1;resizeLast=0;collapsible=1;marginBottom=0;rounded=0;shadow=0;strokeWidth=1;" vertex="1" parent="WIyWlLk6GJQsqaUBKTNV-1">
          <mxGeometry x="970" y="390" width="170" height="210" as="geometry">
            <mxRectangle x="550" y="140" width="160" height="26" as="alternateBounds" />
          </mxGeometry>
        </mxCell>
        <mxCell id="C541wuzrbxIjHpkN4bZi-69" value="- Id : Int" style="text;align=left;verticalAlign=top;spacingLeft=4;spacingRight=4;overflow=hidden;rotatable=0;points=[[0,0.5],[1,0.5]];portConstraint=eastwest;fontStyle=0" vertex="1" parent="C541wuzrbxIjHpkN4bZi-68">
          <mxGeometry y="26" width="170" height="26" as="geometry" />
        </mxCell>
        <mxCell id="C541wuzrbxIjHpkN4bZi-70" value="- Flag : Enum" style="text;align=left;verticalAlign=top;spacingLeft=4;spacingRight=4;overflow=hidden;rotatable=0;points=[[0,0.5],[1,0.5]];portConstraint=eastwest;fontStyle=0" vertex="1" parent="C541wuzrbxIjHpkN4bZi-68">
          <mxGeometry y="52" width="170" height="26" as="geometry" />
        </mxCell>
        <mxCell id="C541wuzrbxIjHpkN4bZi-82" value="- Reporter : User" style="text;align=left;verticalAlign=top;spacingLeft=4;spacingRight=4;overflow=hidden;rotatable=0;points=[[0,0.5],[1,0.5]];portConstraint=eastwest;fontStyle=0" vertex="1" parent="C541wuzrbxIjHpkN4bZi-68">
          <mxGeometry y="78" width="170" height="26" as="geometry" />
        </mxCell>
        <mxCell id="C541wuzrbxIjHpkN4bZi-75" value="- CreatedAt : Date" style="text;align=left;verticalAlign=top;spacingLeft=4;spacingRight=4;overflow=hidden;rotatable=0;points=[[0,0.5],[1,0.5]];portConstraint=eastwest;fontStyle=0" vertex="1" parent="C541wuzrbxIjHpkN4bZi-68">
          <mxGeometry y="104" width="170" height="26" as="geometry" />
        </mxCell>
        <mxCell id="C541wuzrbxIjHpkN4bZi-85" value="- Article: Article" style="text;align=left;verticalAlign=top;spacingLeft=4;spacingRight=4;overflow=hidden;rotatable=0;points=[[0,0.5],[1,0.5]];portConstraint=eastwest;fontStyle=0" vertex="1" parent="C541wuzrbxIjHpkN4bZi-68">
          <mxGeometry y="130" width="170" height="26" as="geometry" />
        </mxCell>
        <mxCell id="C541wuzrbxIjHpkN4bZi-86" value="- Comment: Comment" style="text;align=left;verticalAlign=top;spacingLeft=4;spacingRight=4;overflow=hidden;rotatable=0;points=[[0,0.5],[1,0.5]];portConstraint=eastwest;fontStyle=0" vertex="1" parent="C541wuzrbxIjHpkN4bZi-68">
          <mxGeometry y="156" width="170" height="26" as="geometry" />
        </mxCell>
        <mxCell id="C541wuzrbxIjHpkN4bZi-76" value="" style="line;html=1;strokeWidth=1;align=left;verticalAlign=middle;spacingTop=-1;spacingLeft=3;spacingRight=3;rotatable=0;labelPosition=right;points=[];portConstraint=eastwest;" vertex="1" parent="C541wuzrbxIjHpkN4bZi-68">
          <mxGeometry y="182" width="170" height="8" as="geometry" />
        </mxCell>
        <mxCell id="C541wuzrbxIjHpkN4bZi-77" style="edgeStyle=orthogonalEdgeStyle;rounded=0;orthogonalLoop=1;jettySize=auto;html=1;exitX=0;exitY=0.5;exitDx=0;exitDy=0;" edge="1" parent="WIyWlLk6GJQsqaUBKTNV-1" source="C541wuzrbxIjHpkN4bZi-70" target="C541wuzrbxIjHpkN4bZi-31">
          <mxGeometry relative="1" as="geometry" />
        </mxCell>
        <mxCell id="C541wuzrbxIjHpkN4bZi-84" style="edgeStyle=orthogonalEdgeStyle;rounded=0;orthogonalLoop=1;jettySize=auto;html=1;entryX=1.034;entryY=0.559;entryDx=0;entryDy=0;entryPerimeter=0;" edge="1" parent="WIyWlLk6GJQsqaUBKTNV-1">
          <mxGeometry relative="1" as="geometry">
            <mxPoint x="1160" y="481" as="sourcePoint" />
            <mxPoint x="530" y="454.5340000000001" as="targetPoint" />
            <Array as="points">
              <mxPoint x="1220" y="481" />
              <mxPoint x="1220" y="750" />
              <mxPoint x="680" y="750" />
              <mxPoint x="680" y="455" />
            </Array>
          </mxGeometry>
        </mxCell>
        <mxCell id="C541wuzrbxIjHpkN4bZi-87" value="" style="edgeStyle=orthogonalEdgeStyle;rounded=0;orthogonalLoop=1;jettySize=auto;html=1;entryX=-0.03;entryY=-0.259;entryDx=0;entryDy=0;entryPerimeter=0;exitX=0.984;exitY=0.203;exitDx=0;exitDy=0;exitPerimeter=0;endArrow=none;endFill=1;startFill=1;startArrow=diamondThin;" edge="1" parent="WIyWlLk6GJQsqaUBKTNV-1" source="C541wuzrbxIjHpkN4bZi-15" target="C541wuzrbxIjHpkN4bZi-25">
          <mxGeometry relative="1" as="geometry">
            <mxPoint x="540" y="170" as="sourcePoint" />
            <mxPoint x="616" y="553" as="targetPoint" />
          </mxGeometry>
        </mxCell>
        <mxCell id="C541wuzrbxIjHpkN4bZi-88" value="0..*" style="text;html=1;align=center;verticalAlign=middle;resizable=0;points=[];autosize=1;strokeColor=none;fillColor=none;" vertex="1" parent="WIyWlLk6GJQsqaUBKTNV-1">
          <mxGeometry x="660" y="217" width="40" height="30" as="geometry" />
        </mxCell>
        <mxCell id="C541wuzrbxIjHpkN4bZi-91" value="" style="edgeStyle=orthogonalEdgeStyle;rounded=0;orthogonalLoop=1;jettySize=auto;html=1;entryX=0.379;entryY=0;entryDx=0;entryDy=0;entryPerimeter=0;exitX=1.028;exitY=0.906;exitDx=0;exitDy=0;exitPerimeter=0;endArrow=diamond;endFill=1;" edge="1" parent="WIyWlLk6GJQsqaUBKTNV-1" source="C541wuzrbxIjHpkN4bZi-29" target="C541wuzrbxIjHpkN4bZi-17">
          <mxGeometry relative="1" as="geometry">
            <mxPoint x="464" y="-13" as="sourcePoint" />
            <mxPoint x="540" y="370" as="targetPoint" />
          </mxGeometry>
        </mxCell>
        <mxCell id="C541wuzrbxIjHpkN4bZi-92" value="0..*" style="text;html=1;align=center;verticalAlign=middle;resizable=0;points=[];autosize=1;strokeColor=none;fillColor=none;" vertex="1" parent="WIyWlLk6GJQsqaUBKTNV-1">
          <mxGeometry x="560" y="60" width="40" height="30" as="geometry" />
        </mxCell>
        <mxCell id="C541wuzrbxIjHpkN4bZi-102" value="&lt;&lt;Static&gt;&gt;&#xa;Manager" style="swimlane;fontStyle=2;align=center;verticalAlign=top;childLayout=stackLayout;horizontal=1;startSize=40;horizontalStack=0;resizeParent=1;resizeLast=0;collapsible=1;marginBottom=0;rounded=0;shadow=0;strokeWidth=1;" vertex="1" parent="WIyWlLk6GJQsqaUBKTNV-1">
          <mxGeometry x="1190" y="140" width="170" height="170" as="geometry">
            <mxRectangle x="550" y="140" width="160" height="26" as="alternateBounds" />
          </mxGeometry>
        </mxCell>
        <mxCell id="C541wuzrbxIjHpkN4bZi-106" value="- Date : Date" style="text;align=left;verticalAlign=top;spacingLeft=4;spacingRight=4;overflow=hidden;rotatable=0;points=[[0,0.5],[1,0.5]];portConstraint=eastwest;fontStyle=0" vertex="1" parent="C541wuzrbxIjHpkN4bZi-102">
          <mxGeometry y="40" width="170" height="26" as="geometry" />
        </mxCell>
        <mxCell id="C541wuzrbxIjHpkN4bZi-104" value="- LoginCount : Int" style="text;align=left;verticalAlign=top;spacingLeft=4;spacingRight=4;overflow=hidden;rotatable=0;points=[[0,0.5],[1,0.5]];portConstraint=eastwest;fontStyle=0" vertex="1" parent="C541wuzrbxIjHpkN4bZi-102">
          <mxGeometry y="66" width="170" height="26" as="geometry" />
        </mxCell>
        <mxCell id="C541wuzrbxIjHpkN4bZi-110" value="- ArticlesFetched: Int" style="text;align=left;verticalAlign=top;spacingLeft=4;spacingRight=4;overflow=hidden;rotatable=0;points=[[0,0.5],[1,0.5]];portConstraint=eastwest;fontStyle=0" vertex="1" parent="C541wuzrbxIjHpkN4bZi-102">
          <mxGeometry y="92" width="170" height="26" as="geometry" />
        </mxCell>
        <mxCell id="C541wuzrbxIjHpkN4bZi-111" value="- ArticlesSaved: Int" style="text;align=left;verticalAlign=top;spacingLeft=4;spacingRight=4;overflow=hidden;rotatable=0;points=[[0,0.5],[1,0.5]];portConstraint=eastwest;fontStyle=0" vertex="1" parent="C541wuzrbxIjHpkN4bZi-102">
          <mxGeometry y="118" width="170" height="26" as="geometry" />
        </mxCell>
        <mxCell id="C541wuzrbxIjHpkN4bZi-109" value="" style="line;html=1;strokeWidth=1;align=left;verticalAlign=middle;spacingTop=-1;spacingLeft=3;spacingRight=3;rotatable=0;labelPosition=right;points=[];portConstraint=eastwest;" vertex="1" parent="C541wuzrbxIjHpkN4bZi-102">
          <mxGeometry y="144" width="170" height="8" as="geometry" />
        </mxCell>
      </root>
    </mxGraphModel>
  </diagram>
</mxfile>
